<svg width="15" height="16" viewBox="0 0 15 16" fill="none" xmlns="http://www.w3.org/2000/svg">
<g clip-path="url(#clip0_24_14651)">
<mask id="mask0_24_14651" style="mask-type:luminance" maskUnits="userSpaceOnUse" x="0" y="0" width="15" height="16">
<path d="M0.713379 0.333008H14.7134V15.333H0.713379V0.333008Z" fill="white"/>
</mask>
<g mask="url(#mask0_24_14651)">
<path d="M12.3228 1.82292H11.6353V0.791667C11.6353 0.546875 11.4321 0.34375 11.1873 0.34375C10.9425 0.34375 10.7394 0.546875 10.7394 0.791667V1.82292H4.5988V0.791667C4.5988 0.546875 4.39567 0.34375 4.15088 0.34375C3.90609 0.34375 3.70296 0.546875 3.70296 0.791667V1.82292H3.27067C1.85921 1.82292 0.713379 2.96875 0.713379 4.38021V12.6094C0.713379 14.0208 1.85921 15.1667 3.27067 15.1667H12.3228C13.7394 15.1667 14.88 14.0208 14.88 12.6094V4.38021C14.8853 2.96875 13.7394 1.82292 12.3228 1.82292ZM10.7394 2.29167V3.22396C10.7394 3.46875 10.9425 3.67188 11.1873 3.67188C11.4321 3.67188 11.6353 3.46875 11.6353 3.22396V2.32813C11.9217 2.49479 12.1144 2.80729 12.1144 3.16146C12.1144 3.69271 11.6821 4.11979 11.1509 4.11979C10.6248 4.11979 10.1925 3.69271 10.1925 3.16146C10.1978 2.77604 10.4165 2.44792 10.7394 2.29167ZM3.70296 2.3125V3.22396C3.70296 3.46875 3.90609 3.67188 4.15088 3.67188C4.39567 3.67188 4.5988 3.46875 4.5988 3.22396V2.3125C4.90088 2.46875 5.10921 2.79167 5.10921 3.15625C5.10921 3.6875 4.67692 4.11979 4.14567 4.11979C3.61963 4.11979 3.18734 3.6875 3.18734 3.15625C3.19255 2.79167 3.40088 2.46875 3.70296 2.3125ZM13.9894 12.6094C13.9894 13.526 13.2394 14.2708 12.328 14.2708H3.27067C2.354 14.2708 1.60921 13.526 1.60921 12.6094V5.79167H13.9894V12.6094Z" fill="#CEAA67"/>
</g>
<path d="M4.60954 8.36947H3.36995C3.271 8.36947 3.19287 8.29134 3.19287 8.19238V6.9528C3.19287 6.85384 3.271 6.77051 3.36995 6.77051H4.60954C4.7085 6.77051 4.79183 6.85384 4.79183 6.9528V8.19238C4.79183 8.29134 4.7085 8.36947 4.60954 8.36947Z" fill="#CEAA67"/>
<path d="M4.60954 10.9115H3.36995C3.271 10.9115 3.19287 10.8333 3.19287 10.7344V9.49479C3.19287 9.39583 3.271 9.3125 3.36995 9.3125H4.60954C4.7085 9.3125 4.79183 9.39583 4.79183 9.49479V10.7344C4.79183 10.8333 4.7085 10.9115 4.60954 10.9115Z" fill="#CEAA67"/>
<path d="M4.60954 13.4587H3.36995C3.271 13.4587 3.19287 13.3753 3.19287 13.2764V12.0368C3.19287 11.9378 3.271 11.8545 3.36995 11.8545H4.60954C4.7085 11.8545 4.79183 11.9378 4.79183 12.0368V13.2764C4.79183 13.3753 4.7085 13.4587 4.60954 13.4587Z" fill="#CEAA67"/>
<path d="M7.15104 8.36947H5.91146C5.8125 8.36947 5.73438 8.29134 5.73438 8.19238V6.9528C5.73438 6.85384 5.8125 6.77051 5.91146 6.77051H7.15104C7.25 6.77051 7.33333 6.85384 7.33333 6.9528V8.19238C7.33333 8.29134 7.25 8.36947 7.15104 8.36947Z" fill="#CEAA67"/>
<path d="M7.15104 10.9115H5.91146C5.8125 10.9115 5.73438 10.8333 5.73438 10.7344V9.49479C5.73438 9.39583 5.8125 9.3125 5.91146 9.3125H7.15104C7.25 9.3125 7.33333 9.39583 7.33333 9.49479V10.7344C7.33333 10.8333 7.25 10.9115 7.15104 10.9115Z" fill="#CEAA67"/>
<path d="M7.15104 13.4587H5.91146C5.8125 13.4587 5.73438 13.3753 5.73438 13.2764V12.0368C5.73438 11.9378 5.8125 11.8545 5.91146 11.8545H7.15104C7.25 11.8545 7.33333 11.9378 7.33333 12.0368V13.2764C7.33333 13.3753 7.25 13.4587 7.15104 13.4587Z" fill="#CEAA67"/>
<path d="M9.69775 8.36947H8.45817C8.35921 8.36947 8.27588 8.29134 8.27588 8.19238V6.9528C8.27588 6.85384 8.35921 6.77051 8.45817 6.77051H9.69775C9.79671 6.77051 9.87484 6.85384 9.87484 6.9528V8.19238C9.87484 8.29134 9.79671 8.36947 9.69775 8.36947Z" fill="#CEAA67"/>
<path d="M9.69775 10.9115H8.45817C8.35921 10.9115 8.27588 10.8333 8.27588 10.7344V9.49479C8.27588 9.39583 8.35921 9.3125 8.45817 9.3125H9.69775C9.79671 9.3125 9.87484 9.39583 9.87484 9.49479V10.7344C9.87484 10.8333 9.79671 10.9115 9.69775 10.9115Z" fill="#CEAA67"/>
<path d="M9.69775 13.4587H8.45817C8.35921 13.4587 8.27588 13.3753 8.27588 13.2764V12.0368C8.27588 11.9378 8.35921 11.8545 8.45817 11.8545H9.69775C9.79671 11.8545 9.87484 11.9378 9.87484 12.0368V13.2764C9.87484 13.3753 9.79671 13.4587 9.69775 13.4587Z" fill="#CEAA67"/>
<path d="M12.2397 8.36947H11.0002C10.9012 8.36947 10.8179 8.29134 10.8179 8.19238V6.9528C10.8179 6.85384 10.9012 6.77051 11.0002 6.77051H12.2397C12.3387 6.77051 12.422 6.85384 12.422 6.9528V8.19238C12.4168 8.29134 12.3387 8.36947 12.2397 8.36947Z" fill="#CEAA67"/>
<path d="M12.2397 10.9115H11.0002C10.9012 10.9115 10.8179 10.8333 10.8179 10.7344V9.49479C10.8179 9.39583 10.9012 9.3125 11.0002 9.3125H12.2397C12.3387 9.3125 12.422 9.39583 12.422 9.49479V10.7344C12.4168 10.8333 12.3387 10.9115 12.2397 10.9115Z" fill="#CEAA67"/>
</g>
<defs>
<clipPath id="clip0_24_14651">
<rect width="15" height="16" fill="white"/>
</clipPath>
</defs>
</svg>
