<svg width="16" height="16" viewBox="0 0 16 16" fill="none" xmlns="http://www.w3.org/2000/svg">
<g clip-path="url(#clip0_24_14654)">
<mask id="mask0_24_14654" style="mask-type:luminance" maskUnits="userSpaceOnUse" x="0" y="0" width="16" height="16">
<path d="M0.474121 0.801758H15.3335V15.8018H0.474121V0.801758Z" fill="white"/>
</mask>
<g mask="url(#mask0_24_14654)">
<path d="M4.79183 0.854122C4.00537 0.890581 3.47412 1.01558 3.00537 1.19787C2.521 1.39058 2.10954 1.64058 1.70329 2.05204C1.29183 2.4635 1.04183 2.86975 0.854329 3.35933C0.672037 3.82808 0.547037 4.35933 0.515788 5.14579C0.479329 5.93225 0.474121 6.18225 0.474121 8.18225C0.479329 10.1822 0.489747 10.4322 0.526204 11.2187C0.562663 12.0052 0.687663 12.5416 0.875163 13.0052C1.06266 13.4895 1.31266 13.901 1.72412 14.3125C2.13558 14.7187 2.54704 14.9687 3.03141 15.1562C3.50016 15.3385 4.03662 15.4635 4.81787 15.4947C5.60433 15.5312 5.85954 15.5416 7.85954 15.5364C9.85954 15.5312 10.1095 15.5208 10.896 15.4843C11.6825 15.4479 12.2137 15.3229 12.6825 15.1406C13.1668 14.9479 13.5783 14.6979 13.9845 14.2864C14.3908 13.875 14.646 13.4687 14.8335 12.9791C15.0106 12.5104 15.1356 11.9739 15.172 11.1927C15.2033 10.4062 15.2137 10.1562 15.2085 8.15621C15.2033 6.15621 15.1981 5.90621 15.1564 5.11975C15.12 4.33329 14.995 3.79683 14.8127 3.32808C14.6252 2.84891 14.37 2.43746 13.9585 2.026C13.5522 1.61975 13.1408 1.36975 12.6564 1.18225C12.1877 0.999955 11.6512 0.874956 10.8647 0.843705C10.0835 0.807248 9.82829 0.796831 7.82829 0.802039C5.82829 0.807248 5.57829 0.817663 4.79183 0.854122ZM4.87516 14.1718C4.16162 14.1406 3.771 14.0208 3.51058 13.9218C3.16683 13.7864 2.92204 13.6302 2.66162 13.3697C2.4012 13.1145 2.24496 12.8697 2.10954 12.526C2.00537 12.2656 1.88558 11.875 1.85433 11.1562C1.81787 10.3802 1.80746 10.1458 1.80225 8.18225C1.79704 6.2135 1.80746 5.98433 1.8387 5.20308C1.86996 4.48954 1.98975 4.09891 2.09391 3.8385C2.22412 3.49475 2.38558 3.24995 2.64079 2.98954C2.896 2.72912 3.14079 2.57287 3.48454 2.43746C3.74496 2.33329 4.13558 2.2135 4.85433 2.18225C5.63037 2.14579 5.86475 2.13537 7.82829 2.13016C9.79704 2.12496 10.0314 2.13537 10.8075 2.16662C11.5262 2.19787 11.9168 2.31766 12.1772 2.42183C12.521 2.55204 12.7658 2.7135 13.0262 2.96871C13.2814 3.22391 13.4429 3.4687 13.5783 3.81766C13.6772 4.07287 13.797 4.4635 13.8335 5.18225C13.87 5.95829 13.8804 6.19266 13.8804 8.15621C13.8856 10.125 13.8804 10.3593 13.8439 11.1354C13.8127 11.8541 13.6929 12.2447 13.5939 12.5052C13.4585 12.8489 13.3022 13.0937 13.0418 13.3541C12.7866 13.6093 12.5418 13.7708 12.1981 13.9062C11.9377 14.0052 11.547 14.125 10.8335 14.1614C10.0522 14.1979 9.82308 14.2031 7.85433 14.2083C5.88558 14.2135 5.65641 14.2031 4.87516 14.1718ZM10.8856 4.22912C10.8856 4.47391 10.9689 4.68225 11.1408 4.85412C11.3179 5.03121 11.5262 5.11454 11.771 5.11454C12.0106 5.11454 12.2189 5.026 12.396 4.85412C12.5679 4.68225 12.6512 4.47391 12.6512 4.22912C12.6512 3.98433 12.5627 3.776 12.3908 3.60412C12.2189 3.43225 12.0106 3.34371 11.7658 3.34371C11.521 3.34891 11.3127 3.43225 11.1408 3.60412C10.9689 3.78121 10.8804 3.98954 10.8856 4.22912ZM4.05745 8.17704C4.06266 10.2656 5.76058 11.9583 7.84912 11.9531C9.93766 11.9479 11.6304 10.25 11.6252 8.16141C11.62 6.07287 9.92204 4.38016 7.8335 4.38537C5.74495 4.39058 4.05745 6.0885 4.05745 8.17704ZM5.38558 8.17183C5.38558 7.84891 5.44808 7.53641 5.57308 7.23433C5.69808 6.93225 5.87516 6.66662 6.10433 6.43746C6.3335 6.20308 6.59912 6.026 6.896 5.901C7.19808 5.776 7.51058 5.7135 7.8387 5.7135C8.16162 5.7135 8.47933 5.776 8.7762 5.89579C9.07829 6.02079 9.34391 6.19787 9.57308 6.42704C9.80745 6.66141 9.98454 6.92183 10.1095 7.22391C10.2345 7.526 10.297 7.8385 10.297 8.16662C10.297 8.48954 10.2397 8.80204 10.1147 9.10412C9.98975 9.40621 9.81266 9.67183 9.5835 9.901C9.35433 10.1302 9.0887 10.3125 8.78662 10.4375C8.48454 10.5625 8.17204 10.625 7.84912 10.625C7.521 10.625 7.2085 10.5625 6.90641 10.4375C6.60433 10.3177 6.3387 10.1406 6.10954 9.91141C5.88037 9.67704 5.70329 9.41141 5.57308 9.11454C5.44808 8.81246 5.38558 8.49996 5.38558 8.17183Z" fill="#2E4886"/>
</g>
</g>
<defs>
<clipPath id="clip0_24_14654">
<rect width="16" height="16" fill="white"/>
</clipPath>
</defs>
</svg>
