<svg width="11" height="15" viewBox="0 0 11 15" fill="none" xmlns="http://www.w3.org/2000/svg">
<mask id="mask0_22_1782" style="mask-type:luminance" maskUnits="userSpaceOnUse" x="0" y="0" width="11" height="15">
<path d="M0.265625 0.370117H10.2656V15.0003H0.265625V0.370117Z" fill="white"/>
</mask>
<g mask="url(#mask0_22_1782)">
<path fill-rule="evenodd" clip-rule="evenodd" d="M5.35938 0.375C8.17188 0.375 10.4531 2.65625 10.4531 5.46875C10.4531 6.44792 10.1771 7.35938 9.69792 8.13542C9.125 9.08854 8.54687 10.0417 7.97396 10.9896C7.27604 12.125 6.70833 13.0469 6.01042 14.1823C5.39583 15.1875 5.35417 15.2083 4.73438 14.2031C4.03646 13.0729 3.45313 12.1198 2.75521 10.9896C2.18229 10.0521 1.61458 9.10938 1.04167 8.17188C0.546875 7.38542 0.265625 6.45833 0.265625 5.46875C0.265625 2.65625 2.54688 0.375 5.35938 0.375ZM5.35938 2.92708C6.61979 2.92708 7.64063 3.95313 7.64063 5.21354C7.64063 6.47396 6.61979 7.49479 5.35938 7.49479C4.09896 7.49479 3.07292 6.47396 3.07292 5.21354C3.07292 3.95313 4.09896 2.92708 5.35938 2.92708Z" fill="#CEAA67"/>
</g>
</svg>
