<svg width="54" height="54" viewBox="0 0 54 54" fill="none" xmlns="http://www.w3.org/2000/svg">
<mask id="mask0_24_14652" style="mask-type:luminance" maskUnits="userSpaceOnUse" x="0" y="1" width="53" height="53">
<path d="M0.786621 1.78613H52.7866V53.7861H0.786621V1.78613Z" fill="white"/>
</mask>
<g mask="url(#mask0_24_14652)">
<path d="M26.9899 54.2077C12.5368 54.2077 0.776367 42.4525 0.776367 27.9993C0.776367 13.5462 12.5316 1.79102 26.9899 1.79102C41.443 1.79102 53.1982 13.5462 53.1982 28.0046C53.1982 42.4577 41.4378 54.2077 26.9899 54.2077Z" fill="#E3BD76"/>
</g>
<mask id="mask1_24_14652" style="mask-type:luminance" maskUnits="userSpaceOnUse" x="16" y="15" width="37" height="39">
<path d="M16.3335 15.333H52.7866V53.7861H16.3335V15.333Z" fill="white"/>
</mask>
<g mask="url(#mask1_24_14652)">
<path d="M41.1305 16.3125L17.4326 40.0104L31.2816 53.8594C43.5785 51.8281 53.016 41.2031 53.1982 28.375L41.1305 16.3125Z" fill="#CEAA67"/>
</g>
<path d="M41.6561 16.818C40.1405 15.1774 38.7707 14.0732 37.1248 15.5784L20.3488 31.0524L16.1092 26.2086C14.6405 24.5315 13.1561 25.4847 11.4738 26.9534C9.7915 28.4222 8.54671 29.8545 10.0207 31.5315L14.3957 36.5367L17.9686 40.6253C18.9269 41.7242 20.6092 41.8128 21.6821 40.8232L25.6717 37.1461L42.6092 21.5315C44.255 20.0211 43.1665 18.4638 41.6561 16.818Z" fill="white"/>
</svg>
