<svg width="16" height="16" viewBox="0 0 16 16" fill="none" xmlns="http://www.w3.org/2000/svg">
<mask id="mask0_24_14647" style="mask-type:luminance" maskUnits="userSpaceOnUse" x="0" y="0" width="16" height="16">
<path d="M0.317871 0.801758H15.3179V15.8018H0.317871V0.801758Z" fill="white"/>
</mask>
<g mask="url(#mask0_24_14647)">
<path d="M7.73975 15.6455C5.76058 15.6455 3.896 14.8747 2.49495 13.4736C1.0887 12.0726 0.317871 10.208 0.317871 8.22363C0.317871 6.23926 1.0887 4.37988 2.49495 2.97363C3.896 1.57259 5.76058 0.801758 7.73975 0.801758C9.72412 0.801758 11.5887 1.57259 12.9897 2.97363C14.3908 4.37988 15.1616 6.23926 15.1616 8.22363C15.1616 10.208 14.3908 12.0726 12.9897 13.4736C11.5887 14.8747 9.72412 15.6455 7.73975 15.6455ZM7.73975 1.93717C4.271 1.93717 1.45329 4.75488 1.45329 8.22363C1.45329 11.6924 4.271 14.5153 7.73975 14.5153C11.2085 14.5153 14.0314 11.6924 14.0314 8.22363C14.0314 4.75488 11.2085 1.93717 7.73975 1.93717Z" fill="#CEAA67"/>
</g>
<path d="M10.2033 11.0885C10.0939 11.0885 9.98454 11.0573 9.88558 10.9896L7.12516 9.09896C6.96891 8.99479 6.88037 8.81771 6.88037 8.63021L6.88558 4C6.88558 3.6875 7.14079 3.4375 7.45329 3.4375C7.76579 3.4375 8.021 3.6875 8.021 4L8.01058 8.33333L10.5262 10.0573C10.7814 10.2344 10.8491 10.5885 10.672 10.8438C10.5627 11.0052 10.3856 11.0885 10.2033 11.0885Z" fill="#CEAA67"/>
</svg>
